<svg width="49" height="48" viewBox="0 0 49 48" fill="none" xmlns="http://www.w3.org/2000/svg">
<g clip-path="url(#clip0_1_16)">
<g filter="url(#filter0_d_1_16)">
<path d="M9.70166 26.2922V31.768C9.70166 33.1906 10.4861 34.5157 11.7411 35.1977L21.5462 40.5177C22.7228 41.1608 24.1348 41.1608 25.3114 40.5177L35.1165 35.1977C36.3715 34.5157 37.1559 33.1906 37.1559 31.768V26.2922L25.3114 32.7229C24.1348 33.366 22.7228 33.366 21.5462 32.7229L9.70166 26.2922ZM21.5462 7.46769L5.01483 16.4317C3.66172 17.1722 3.66172 19.1209 5.01483 19.8614L21.5462 28.8255C22.7228 29.4685 24.1348 29.4685 25.3114 28.8255L41.078 20.2707V31.7875C41.078 32.8593 41.9604 33.7362 43.039 33.7362C44.1175 33.7362 45 32.8593 45 31.7875V19.2963C45 18.5753 44.6078 17.9322 43.9803 17.5815L25.3114 7.46769C24.732 7.16062 24.0854 7 23.4288 7C22.7722 7 22.1256 7.16062 21.5462 7.46769Z" fill="#5E8B7E"/>
</g>
</g>
<defs>
<filter id="filter0_d_1_16" x="0" y="7" width="51" height="44" filterUnits="userSpaceOnUse" color-interpolation-filters="sRGB">
<feFlood flood-opacity="0" result="BackgroundImageFix"/>
<feColorMatrix in="SourceAlpha" type="matrix" values="0 0 0 0 0 0 0 0 0 0 0 0 0 0 0 0 0 0 127 0" result="hardAlpha"/>
<feOffset dx="1" dy="5"/>
<feGaussianBlur stdDeviation="2.5"/>
<feComposite in2="hardAlpha" operator="out"/>
<feColorMatrix type="matrix" values="0 0 0 0 0.368627 0 0 0 0 0.545098 0 0 0 0 0.494118 0 0 0 0.2 0"/>
<feBlend mode="normal" in2="BackgroundImageFix" result="effect1_dropShadow_1_16"/>
<feBlend mode="normal" in="SourceGraphic" in2="effect1_dropShadow_1_16" result="shape"/>
</filter>
<clipPath id="clip0_1_16">
<rect width="48" height="48" fill="white" transform="translate(0.5)"/>
</clipPath>
</defs>
</svg>
