<svg width="123" height="31" viewBox="0 0 123 31" fill="none" xmlns="http://www.w3.org/2000/svg">
<g clip-path="url(#clip0_1_166)">
<path fill-rule="evenodd" clip-rule="evenodd" d="M15.3283 5.99335C14.8013 5.99108 14.591 6.30921 14.209 6.45336C13.0717 7.1515 11.8877 7.72133 10.7175 8.4474C9.88203 8.96553 9.03495 9.43385 8.11802 9.96179C7.8816 10.098 7.3785 10.3007 7.37813 10.5754C7.37776 10.7482 7.65676 10.9022 7.77627 10.9781C8.89825 11.6898 10.0819 12.3743 11.2109 13.0102C12.4188 13.691 13.4769 14.317 14.702 15.0042C14.9093 15.1205 15.1378 15.2692 15.3474 15.1959C15.7014 15.0722 15.5562 14.094 15.5752 13.6812C15.6107 12.9219 15.4026 12.0102 15.8785 11.7637C16.2101 11.5924 17.0415 11.652 17.6051 11.6679C19.3389 11.7162 21.1612 11.6486 22.9185 11.6486C24.7508 11.6486 26.4928 11.6294 28.3072 11.6294C28.5847 11.6294 28.8798 11.6271 29.161 11.6486C29.452 11.6709 29.7392 11.6419 29.9581 11.706C30.4858 11.8611 30.6546 12.2974 30.7742 12.8755C31.135 14.6238 31.0352 16.8488 30.6793 18.5119C30.2371 20.5795 29.5342 22.1668 28.6113 23.631C28.147 24.3676 27.6025 25.0231 27.0553 25.6631C26.3699 26.4643 25.5904 27.1741 24.7213 27.8104C24.5499 27.9357 24.4128 28.1006 24.2466 28.2323C23.9456 28.4715 23.4985 28.7395 23.1463 28.9225C22.3623 29.3297 21.5616 29.7353 20.7175 30.0535C19.0031 30.7003 16.8462 31.1086 14.5694 30.9739C13.4739 30.9094 12.4125 30.7595 11.4769 30.4946C10.0247 30.0837 8.82392 29.5999 7.70083 28.9032C5.86959 27.7677 4.30577 26.382 2.97613 24.6665C2.72738 24.345 2.51188 23.9699 2.25491 23.5929C2.017 23.2442 1.73277 22.7989 1.62856 22.443C1.53594 22.1279 1.56694 21.7135 1.79925 21.5611C2.02447 21.4128 2.84578 21.4781 3.37427 21.4652C4.93249 21.4275 6.57736 21.446 8.23194 21.4464C9.96121 21.4464 11.4231 21.4267 13.1273 21.4271C13.6771 21.4271 14.2508 21.3799 14.7591 21.4079C15.6865 21.4588 15.4572 22.4521 15.4803 23.4208C15.4871 23.711 15.4788 24.0027 15.4803 24.2642C15.4815 24.5012 15.431 24.7755 15.6891 24.9352C16.1149 24.9755 16.4615 24.6812 16.7894 24.4944C17.1274 24.3016 17.4744 24.1159 17.7949 23.9193C18.1165 23.7223 18.4474 23.4985 18.782 23.3249C19.1253 23.1468 19.433 22.9264 19.7688 22.7306C20.7769 22.1415 21.7255 21.5713 22.7855 21.0048C23.0522 20.8626 23.6557 20.621 23.6587 20.3146C23.6613 20.0018 23.0286 19.7388 22.7855 19.6052C21.7816 19.0542 20.7899 18.4568 19.8065 17.8798C19.4707 17.6828 19.1503 17.4715 18.8197 17.2855C18.1516 16.9088 17.5181 16.5107 16.8462 16.116C16.5164 15.922 16.1608 15.7129 15.7646 15.6363C15.5061 15.7277 15.502 16.0322 15.499 16.3073C15.496 16.5832 15.4736 16.9066 15.48 17.1892C15.4942 17.8221 15.5894 18.8191 15.2331 19.0682C14.9552 19.2625 14.0047 19.164 13.4683 19.164C9.79613 19.164 6.25653 19.2025 2.57686 19.2025C1.49933 19.2025 0.616021 19.1776 0.299672 18.4164C0.0875274 17.9059 0.0740817 17.1953 0.0341178 16.5568C-0.008834 15.8733 -0.00734002 15.1827 0.0150696 14.5246C0.0591419 13.2249 0.354576 11.9773 0.679142 10.9584C1.02425 9.87349 1.43099 8.87534 1.93109 7.98663C2.44278 7.07716 3.03178 6.28355 3.6768 5.51333C4.95826 3.98308 6.54897 2.68417 8.36378 1.7747C8.84111 1.53545 9.30573 1.28336 9.78679 1.08449C10.291 0.875801 10.8154 0.728626 11.3618 0.566733C12.9596 0.0935087 15.1173 -0.140839 17.1682 0.0874707C21.7319 0.596546 24.8229 2.69285 27.2446 5.39898C27.9061 6.196 28.513 7.00621 29.0662 7.987C29.2428 8.30022 29.5846 8.98742 29.1801 9.29082C28.9496 9.46404 28.023 9.43498 27.5673 9.44442C26.3822 9.46781 25.2905 9.44592 24.1708 9.44442C23.8989 9.44404 23.6195 9.48706 23.336 9.48253C21.5149 9.4546 19.3561 9.46668 17.492 9.46366C16.7689 9.46253 15.8538 9.57763 15.6323 9.13761C15.4538 8.78288 15.589 7.98625 15.5756 7.46963C15.5603 6.91715 15.7156 6.31524 15.3283 5.99335Z" fill="white"/>
</g>
<path d="M35.8849 21V10.8182H38.0376V15.0192H42.4077V10.8182H44.5554V21H42.4077V16.794H38.0376V21H35.8849ZM46.2905 21V13.3636H48.4084V21H46.2905ZM47.3544 12.3793C47.0395 12.3793 46.7694 12.2749 46.544 12.0661C46.322 11.8539 46.2109 11.6004 46.2109 11.3054C46.2109 11.0137 46.322 10.7635 46.544 10.5547C46.7694 10.3426 47.0395 10.2365 47.3544 10.2365C47.6693 10.2365 47.9377 10.3426 48.1598 10.5547C48.3852 10.7635 48.4979 11.0137 48.4979 11.3054C48.4979 11.6004 48.3852 11.8539 48.1598 12.0661C47.9377 12.2749 47.6693 12.3793 47.3544 12.3793ZM53.5453 24.0227C52.8592 24.0227 52.2709 23.9283 51.7804 23.7393C51.2931 23.5537 50.9054 23.3002 50.617 22.9787C50.3287 22.6572 50.1414 22.2959 50.0552 21.8949L52.014 21.6314C52.0737 21.7839 52.1681 21.9264 52.2974 22.0589C52.4267 22.1915 52.5974 22.2976 52.8095 22.3771C53.0249 22.46 53.2868 22.5014 53.595 22.5014C54.0557 22.5014 54.4352 22.3887 54.7335 22.1634C55.0351 21.9413 55.1859 21.5684 55.1859 21.0447V19.6477H55.0964C55.0036 19.8598 54.8644 20.0604 54.6788 20.2493C54.4932 20.4382 54.2546 20.5923 53.9629 20.7116C53.6712 20.831 53.3232 20.8906 52.9189 20.8906C52.3455 20.8906 51.8234 20.758 51.3528 20.4929C50.8855 20.2244 50.5126 19.8151 50.2342 19.2649C49.9591 18.7114 49.8216 18.0121 49.8216 17.1669C49.8216 16.3018 49.9624 15.5793 50.2441 14.9993C50.5259 14.4193 50.9004 13.9851 51.3677 13.6967C51.8384 13.4084 52.3538 13.2642 52.9139 13.2642C53.3414 13.2642 53.6994 13.3371 53.9877 13.483C54.2761 13.6255 54.5081 13.8045 54.6838 14.0199C54.8627 14.232 55.0003 14.4408 55.0964 14.6463H55.176V13.3636H57.2789V21.0746C57.2789 21.7242 57.1199 22.2678 56.8017 22.7053C56.4835 23.1428 56.0427 23.4709 55.4792 23.6896C54.9191 23.9117 54.2744 24.0227 53.5453 24.0227ZM53.59 19.2997C53.9314 19.2997 54.2198 19.2152 54.4551 19.0462C54.6937 18.8738 54.876 18.6286 55.002 18.3104C55.1312 17.9889 55.1958 17.6044 55.1958 17.157C55.1958 16.7095 55.1329 16.3217 55.0069 15.9936C54.881 15.6622 54.6987 15.4053 54.46 15.223C54.2214 15.0407 53.9314 14.9496 53.59 14.9496C53.242 14.9496 52.9487 15.044 52.71 15.233C52.4714 15.4186 52.2908 15.6771 52.1681 16.0085C52.0455 16.34 51.9842 16.7228 51.9842 17.157C51.9842 17.5978 52.0455 17.9789 52.1681 18.3004C52.2941 18.6186 52.4747 18.8655 52.71 19.0412C52.9487 19.2135 53.242 19.2997 53.59 19.2997ZM61.0822 16.5852V21H58.9643V10.8182H61.0225V14.7109H61.112C61.2844 14.2602 61.5628 13.9072 61.9473 13.652C62.3317 13.3935 62.814 13.2642 63.394 13.2642C63.9243 13.2642 64.3867 13.3802 64.7811 13.6122C65.1788 13.8409 65.487 14.1707 65.7058 14.6016C65.9279 15.0291 66.0372 15.5412 66.0339 16.1378V21H63.916V16.5156C63.9193 16.045 63.8 15.6787 63.5581 15.4169C63.3194 15.1551 62.9847 15.0241 62.5538 15.0241C62.2654 15.0241 62.0102 15.0855 61.7882 15.2081C61.5694 15.3307 61.3971 15.5097 61.2711 15.745C61.1485 15.977 61.0855 16.2571 61.0822 16.5852ZM71.7624 13.3636V14.9545H67.1637V13.3636H71.7624ZM68.2077 11.5341H70.3256V18.6534C70.3256 18.849 70.3555 19.0014 70.4151 19.1108C70.4748 19.2169 70.5576 19.2914 70.6637 19.3345C70.7731 19.3776 70.899 19.3991 71.0415 19.3991C71.141 19.3991 71.2404 19.3909 71.3398 19.3743C71.4393 19.3544 71.5155 19.3395 71.5685 19.3295L71.9016 20.9055C71.7956 20.9387 71.6464 20.9768 71.4542 21.0199C71.262 21.0663 71.0283 21.0945 70.7532 21.1044C70.2428 21.1243 69.7953 21.0563 69.4109 20.9006C69.0297 20.7448 68.7331 20.5028 68.521 20.1747C68.3088 19.8466 68.2044 19.4323 68.2077 18.9318V11.5341ZM81.9455 13.7464C81.9057 13.3454 81.735 13.0339 81.4334 12.8118C81.1318 12.5897 80.7225 12.4787 80.2054 12.4787C79.8541 12.4787 79.5575 12.5284 79.3155 12.6278C79.0736 12.724 78.888 12.8582 78.7587 13.0305C78.6328 13.2029 78.5698 13.3984 78.5698 13.6172C78.5632 13.7995 78.6013 13.9586 78.6841 14.0945C78.7703 14.2304 78.888 14.348 79.0371 14.4474C79.1863 14.5436 79.3586 14.6281 79.5542 14.701C79.7497 14.7706 79.9585 14.8303 80.1806 14.88L81.0953 15.0987C81.5395 15.1982 81.9471 15.3307 82.3184 15.4964C82.6896 15.6622 83.0111 15.866 83.2828 16.108C83.5546 16.3499 83.7651 16.6349 83.9142 16.9631C84.0667 17.2912 84.1446 17.6674 84.1479 18.0916C84.1446 18.7147 83.9855 19.255 83.6706 19.7124C83.3591 20.1664 82.9083 20.5194 82.3184 20.7713C81.7317 21.0199 81.0241 21.1442 80.1955 21.1442C79.3735 21.1442 78.6576 21.0182 78.0478 20.7663C77.4412 20.5144 76.9673 20.1416 76.6259 19.6477C76.2878 19.1506 76.1105 18.5357 76.0939 17.8033H78.177C78.2002 18.1446 78.298 18.4297 78.4703 18.6584C78.646 18.8838 78.8797 19.0545 79.1713 19.1705C79.4663 19.2831 79.7994 19.3395 80.1706 19.3395C80.5352 19.3395 80.8517 19.2865 81.1202 19.1804C81.392 19.0743 81.6025 18.9268 81.7516 18.7379C81.9007 18.549 81.9753 18.3319 81.9753 18.0866C81.9753 17.858 81.9074 17.6657 81.7715 17.5099C81.6389 17.3542 81.4434 17.2216 81.1848 17.1122C80.9296 17.0028 80.6164 16.9034 80.2452 16.8139L79.1365 16.5355C78.2781 16.3267 77.6003 16.0002 77.1032 15.5561C76.606 15.112 76.3591 14.5137 76.3624 13.7614C76.3591 13.1449 76.5231 12.6063 76.8546 12.1456C77.1893 11.6849 77.6484 11.3253 78.2317 11.0668C78.815 10.8082 79.4779 10.679 80.2203 10.679C80.976 10.679 81.6356 10.8082 82.199 11.0668C82.7658 11.3253 83.2066 11.6849 83.5215 12.1456C83.8364 12.6063 83.9988 13.1399 84.0087 13.7464H81.9455ZM89.0064 21.1491C88.2242 21.1491 87.5514 20.9834 86.9879 20.652C86.4278 20.3172 85.9969 19.8532 85.6953 19.2599C85.397 18.6667 85.2479 17.9839 85.2479 17.2116C85.2479 16.4295 85.3987 15.7434 85.7003 15.1534C86.0052 14.5601 86.4377 14.0978 86.9979 13.7663C87.558 13.4316 88.2242 13.2642 88.9964 13.2642C89.6626 13.2642 90.246 13.3852 90.7464 13.6271C91.2469 13.8691 91.643 14.2088 91.9347 14.6463C92.2263 15.0838 92.3871 15.5975 92.4169 16.1875H90.4183C90.362 15.8063 90.2128 15.4998 89.9709 15.2678C89.7322 15.0324 89.419 14.9148 89.0312 14.9148C88.7031 14.9148 88.4164 15.0043 88.1712 15.1832C87.9292 15.3589 87.7403 15.6158 87.6044 15.9538C87.4685 16.2919 87.4006 16.7012 87.4006 17.1818C87.4006 17.669 87.4669 18.0833 87.5994 18.4247C87.7353 18.7661 87.9259 19.0263 88.1712 19.2053C88.4164 19.3842 88.7031 19.4737 89.0312 19.4737C89.2732 19.4737 89.4903 19.424 89.6825 19.3246C89.8781 19.2251 90.0388 19.081 90.1648 18.892C90.294 18.6998 90.3786 18.4695 90.4183 18.201H92.4169C92.3838 18.7843 92.2247 19.2981 91.9396 19.7422C91.6579 20.183 91.2685 20.5277 90.7713 20.7763C90.2741 21.0249 89.6858 21.1491 89.0064 21.1491ZM95.8908 16.5852V21H93.7729V10.8182H95.8311V14.7109H95.9206C96.093 14.2602 96.3714 13.9072 96.7559 13.652C97.1403 13.3935 97.6226 13.2642 98.2026 13.2642C98.7329 13.2642 99.1953 13.3802 99.5897 13.6122C99.9874 13.8409 100.296 14.1707 100.514 14.6016C100.736 15.0291 100.846 15.5412 100.843 16.1378V21H98.7246V16.5156C98.7279 16.045 98.6086 15.6787 98.3667 15.4169C98.128 15.1551 97.7933 15.0241 97.3624 15.0241C97.074 15.0241 96.8188 15.0855 96.5968 15.2081C96.378 15.3307 96.2057 15.5097 96.0797 15.745C95.9571 15.977 95.8941 16.2571 95.8908 16.5852ZM105.96 21.1491C105.187 21.1491 104.519 20.9851 103.956 20.657C103.396 20.3255 102.963 19.8648 102.658 19.2749C102.353 18.6816 102.201 17.9938 102.201 17.2116C102.201 16.4228 102.353 15.7334 102.658 15.1435C102.963 14.5502 103.396 14.0895 103.956 13.7614C104.519 13.4299 105.187 13.2642 105.96 13.2642C106.732 13.2642 107.398 13.4299 107.958 13.7614C108.522 14.0895 108.956 14.5502 109.261 15.1435C109.566 15.7334 109.718 16.4228 109.718 17.2116C109.718 17.9938 109.566 18.6816 109.261 19.2749C108.956 19.8648 108.522 20.3255 107.958 20.657C107.398 20.9851 106.732 21.1491 105.96 21.1491ZM105.969 19.5085C106.321 19.5085 106.614 19.4091 106.849 19.2102C107.085 19.008 107.262 18.733 107.381 18.3849C107.504 18.0369 107.565 17.6409 107.565 17.1967C107.565 16.7526 107.504 16.3565 107.381 16.0085C107.262 15.6605 107.085 15.3854 106.849 15.1832C106.614 14.9811 106.321 14.88 105.969 14.88C105.615 14.88 105.317 14.9811 105.075 15.1832C104.836 15.3854 104.655 15.6605 104.533 16.0085C104.413 16.3565 104.354 16.7526 104.354 17.1967C104.354 17.6409 104.413 18.0369 104.533 18.3849C104.655 18.733 104.836 19.008 105.075 19.2102C105.317 19.4091 105.615 19.5085 105.969 19.5085ZM114.545 21.1491C113.773 21.1491 113.105 20.9851 112.542 20.657C111.982 20.3255 111.549 19.8648 111.244 19.2749C110.939 18.6816 110.787 17.9938 110.787 17.2116C110.787 16.4228 110.939 15.7334 111.244 15.1435C111.549 14.5502 111.982 14.0895 112.542 13.7614C113.105 13.4299 113.773 13.2642 114.545 13.2642C115.318 13.2642 115.984 13.4299 116.544 13.7614C117.107 14.0895 117.542 14.5502 117.847 15.1435C118.152 15.7334 118.304 16.4228 118.304 17.2116C118.304 17.9938 118.152 18.6816 117.847 19.2749C117.542 19.8648 117.107 20.3255 116.544 20.657C115.984 20.9851 115.318 21.1491 114.545 21.1491ZM114.555 19.5085C114.907 19.5085 115.2 19.4091 115.435 19.2102C115.671 19.008 115.848 18.733 115.967 18.3849C116.09 18.0369 116.151 17.6409 116.151 17.1967C116.151 16.7526 116.09 16.3565 115.967 16.0085C115.848 15.6605 115.671 15.3854 115.435 15.1832C115.2 14.9811 114.907 14.88 114.555 14.88C114.201 14.88 113.902 14.9811 113.661 15.1832C113.422 15.3854 113.241 15.6605 113.119 16.0085C112.999 16.3565 112.94 16.7526 112.94 17.1967C112.94 17.6409 112.999 18.0369 113.119 18.3849C113.241 18.733 113.422 19.008 113.661 19.2102C113.902 19.4091 114.201 19.5085 114.555 19.5085ZM121.799 10.8182V21H119.681V10.8182H121.799Z" fill="white"/>
<defs>
<clipPath id="clip0_1_166">
<rect width="31" height="31" fill="white"/>
</clipPath>
</defs>
</svg>
