<svg width="48" height="48" viewBox="0 0 48 48" fill="none" xmlns="http://www.w3.org/2000/svg">
<g clip-path="url(#clip0_1_7)">
<g filter="url(#filter0_d_1_7)">
<path d="M42 20H38V8H40V4H8V8H10V20H6C5.46957 20 4.96086 20.2107 4.58579 20.5858C4.21071 20.9609 4 21.4696 4 22V40H44V22C44 21.4696 43.7893 20.9609 43.4142 20.5858C43.0391 20.2107 42.5304 20 42 20ZM28 36V28H20V36H14V8H34V36H28Z" fill="#5E8B7E"/>
</g>
<path d="M18 12H22V16H18V12ZM26 12H30V16H26V12ZM18 20H22V24H18V20ZM26 20H30V24H26V20Z" fill="#5E8B7E"/>
</g>
<defs>
<filter id="filter0_d_1_7" x="0" y="4" width="50" height="46" filterUnits="userSpaceOnUse" color-interpolation-filters="sRGB">
<feFlood flood-opacity="0" result="BackgroundImageFix"/>
<feColorMatrix in="SourceAlpha" type="matrix" values="0 0 0 0 0 0 0 0 0 0 0 0 0 0 0 0 0 0 127 0" result="hardAlpha"/>
<feOffset dx="1" dy="5"/>
<feGaussianBlur stdDeviation="2.5"/>
<feComposite in2="hardAlpha" operator="out"/>
<feColorMatrix type="matrix" values="0 0 0 0 0.368627 0 0 0 0 0.545098 0 0 0 0 0.494118 0 0 0 0.2 0"/>
<feBlend mode="normal" in2="BackgroundImageFix" result="effect1_dropShadow_1_7"/>
<feBlend mode="normal" in="SourceGraphic" in2="effect1_dropShadow_1_7" result="shape"/>
</filter>
<clipPath id="clip0_1_7">
<rect width="48" height="48" fill="white"/>
</clipPath>
</defs>
</svg>
